C:\My Captures\DataSMARTClinic\0056~004 ID\0056~aa~STRATO3\Standing_ID_04_STRATO.mot
version=1
nRows=79
nColumns=10
inDegrees=yes

BTS OpenSim export

endheader
time	[P0]_force_vx	[P0]_force_vy	[P0]_force_vz	[P0]_force_px	[P0]_force_py	[P0]_force_pz	[P0]_torque_x	[P0]_torque_y	[P0]_torque_z
0.000000	3.99613953	568.64648438	12.86108685	0.85513234	0.00181492	0.19679888	0.00551871	-1.00230980	-0.00038573
0.004000	2.38657069	567.59173584	13.93441868	0.85523283	0.00181546	0.19682159	0.00537593	-0.97637850	-0.00037575
0.008000	2.92235327	567.85650635	14.47333622	0.85539532	0.00181632	0.19692393	0.00516244	-0.93760455	-0.00036083
0.012000	2.92380667	567.59252930	14.47323418	0.85525286	0.00181550	0.19699489	0.00517599	-0.94006449	-0.00036178
0.016000	2.92381763	567.59051514	14.47323322	0.85500991	0.00181417	0.19699393	0.00519502	-0.94352180	-0.00036311
0.020000	2.92235327	567.85650635	14.47333622	0.85539532	0.00181632	0.19692393	0.00516244	-0.93760455	-0.00036083
0.024000	2.38297892	568.11126709	14.47270393	0.85502791	0.00181426	0.19700412	0.00474059	-0.86098689	-0.00033134
0.028000	2.92239380	568.11468506	13.39738655	0.85504925	0.00181440	0.19696154	0.00493964	-0.89713925	-0.00034526
0.032000	3.45816565	568.38140869	13.93630409	0.85521293	0.00181532	0.19691198	0.00375076	-0.68121511	-0.00026216
0.036000	2.92019939	568.38043213	13.93545246	0.85543424	0.00181653	0.19691290	0.00581659	-1.05641115	-0.00040655
0.040000	2.91876793	568.64044189	13.93555164	0.85533267	0.00181594	0.19699278	0.00485539	-0.88183832	-0.00033937
0.044000	2.92021060	568.37841797	13.93545151	0.85519165	0.00181520	0.19691195	0.00583488	-1.05973291	-0.00040783
0.048000	3.45816588	568.38140869	13.93618202	0.85521293	0.00181532	0.19691198	0.00531484	-0.96528268	-0.00037148
0.052000	2.92021060	568.37841797	13.93545151	0.85519165	0.00181520	0.19691195	0.00583488	-1.05973291	-0.00040783
0.056000	3.45961928	568.11743164	13.93608093	0.85507053	0.00181450	0.19698288	0.00532817	-0.96770322	-0.00037241
0.060000	3.45960855	568.11938477	13.93608093	0.85507178	0.00181457	0.19683106	0.00532256	-0.96668565	-0.00037202
0.064000	3.45747638	568.63934326	13.39831829	0.85486722	0.00181339	0.19697087	0.00443490	-0.80546820	-0.00030998
0.068000	2.92093396	568.11425781	14.47343540	0.85504919	0.00181438	0.19700415	0.00519228	-0.94302410	-0.00036291
0.072000	3.46106052	567.85565186	13.93597984	0.85517257	0.00181504	0.19705355	0.00532302	-0.96676910	-0.00037205
0.076000	3.45961928	568.11743164	13.93608093	0.85507053	0.00181450	0.19698288	0.00532817	-0.96770322	-0.00037241
0.080000	2.92237544	567.85247803	14.47333431	0.85515124	0.00181491	0.19707485	0.00518663	-0.94199717	-0.00036252
0.084000	2.92309546	567.85443115	13.93537140	0.85515082	0.00181498	0.19690287	0.00427359	-0.77617109	-0.00029870
0.088000	3.46106052	567.85565186	13.93597984	0.85517257	0.00181504	0.19705355	0.00532302	-0.96676910	-0.00037205
0.092000	2.92166376	568.11444092	13.93547153	0.85504925	0.00181439	0.19698285	0.00428392	-0.77804786	-0.00029942
0.096000	2.38442159	567.84924316	14.47260284	0.85488659	0.00181351	0.19692321	0.00474922	-0.86255479	-0.00033195
0.100000	3.46179175	567.85559082	13.39801598	0.85492933	0.00181377	0.19688064	0.00442712	-0.80405569	-0.00030943
0.104000	2.38440895	567.85150146	14.47260380	0.85513121	0.00181486	0.19692294	0.00473001	-0.85906684	-0.00033060
0.108000	2.38227725	568.37152100	13.93471909	0.85492647	0.00181368	0.19706272	0.00540639	-0.98191029	-0.00037788
0.112000	3.45674539	568.63940430	13.93628120	0.85511017	0.00181466	0.19714354	0.00533100	-0.96821791	-0.00037261
0.116000	2.38152528	568.37524414	14.47280598	0.85517031	0.00181507	0.19693322	0.00472726	-0.85856581	-0.00033041
0.120000	3.45673418	568.64141846	13.93628216	0.85511148	0.00181473	0.19699188	0.00532540	-0.96720123	-0.00037222
0.124000	2.91660810	568.89996338	14.47373772	0.85498828	0.00181407	0.19694257	0.00519501	-0.94352001	-0.00036311
0.128000	3.45385051	569.16510010	13.93648338	0.85515058	0.00181494	0.19700208	0.00532282	-0.96673226	-0.00037204
0.132000	2.37865281	568.89697266	14.47300625	0.85496700	0.00181395	0.19694254	0.00474350	-0.86151546	-0.00033155
0.136000	3.45673418	568.64141846	13.93628216	0.85511148	0.00181473	0.19699188	0.00532540	-0.96720123	-0.00037222
0.140000	2.91516542	569.16192627	14.47383785	0.85512924	0.00181481	0.19702332	0.00518664	-0.94199890	-0.00036252
0.144000	3.45529318	568.90313721	13.93638325	0.85500956	0.00181419	0.19692132	0.00533054	-0.96813393	-0.00037258
0.148000	2.38082385	568.63549805	13.93482018	0.85506886	0.00181449	0.19699182	0.00539348	-0.97956610	-0.00037698
0.152000	2.91879129	568.63616943	13.93555069	0.85484588	0.00181326	0.19699213	0.00586366	-1.06496048	-0.00040984
0.156000	3.45529318	568.90313721	13.93638325	0.85500956	0.00181419	0.19692132	0.00533054	-0.96813393	-0.00037258
0.160000	3.45530438	568.90112305	13.93638229	0.85500830	0.00181413	0.19707291	0.00533613	-0.96915019	-0.00037297
0.164000	2.91732693	568.90216064	13.93565273	0.85523069	0.00181541	0.19692223	0.00583227	-1.05925965	-0.00040765
0.168000	2.92022276	568.37615967	13.93557262	0.85494733	0.00181385	0.19691223	0.00428927	-0.77901894	-0.00029980
0.172000	2.91806769	568.90032959	13.39768887	0.85498834	0.00181408	0.19690001	0.00494201	-0.89756995	-0.00034542
0.176000	2.91876936	568.64013672	13.93567371	0.85508966	0.00181466	0.19684140	0.00427616	-0.77663708	-0.00029888
0.180000	2.92022300	568.37615967	13.93545055	0.85494733	0.00181385	0.19691223	0.00585334	-1.06308651	-0.00040912
0.184000	2.92021060	568.37841797	13.93545151	0.85519165	0.00181520	0.19691195	0.00583488	-1.05973291	-0.00040783
0.188000	2.91876960	568.64013672	13.93555164	0.85508966	0.00181466	0.19684140	0.00584023	-1.06070471	-0.00040820
0.192000	2.91806769	568.90032959	13.39768887	0.85498834	0.00181408	0.19690001	0.00494201	-0.89756995	-0.00034542
0.196000	3.45382857	569.16906738	13.93648529	0.85539412	0.00181634	0.19685149	0.00529896	-0.96239930	-0.00037037
0.200000	2.91952109	568.63641357	13.39758682	0.85484594	0.00181327	0.19697084	0.00495470	-0.89987499	-0.00034631
0.204000	2.91733789	568.90014648	13.93565178	0.85498834	0.00181408	0.19692129	0.00585055	-1.06257880	-0.00040892
0.208000	2.91587472	569.16589355	13.93587589	0.85513008	0.00181494	0.19670022	0.00426840	-0.77522904	-0.00029834
0.212000	2.91877890	568.63842773	13.93555164	0.85509014	0.00181461	0.19699185	0.00584521	-1.06160831	-0.00040855
0.216000	2.91805792	568.90209961	13.39768982	0.85498786	0.00181414	0.19674963	0.00493704	-0.89666635	-0.00034507
0.220000	2.91516232	569.42803955	13.39789200	0.85527098	0.00181569	0.19675978	0.00491683	-0.89299685	-0.00034366
0.224000	2.91514492	569.16564941	14.47383976	0.85513008	0.00181493	0.19672149	0.00517652	-0.94016165	-0.00036181
0.228000	2.91731620	568.90411377	13.93565369	0.85523200	0.00181547	0.19677064	0.00582713	-1.05832517	-0.00040729
0.232000	2.91947079	568.38000488	14.47353745	0.85519111	0.00181525	0.19678274	0.00517377	-0.93966138	-0.00036162
0.236000	2.91947722	568.64440918	13.39759064	0.85533345	0.00181607	0.19666940	0.00490928	-0.89162588	-0.00034313
0.240000	3.45455980	569.16906738	13.39852142	0.85515141	0.00181507	0.19667898	0.00440369	-0.79980016	-0.00030780
0.244000	2.91731691	568.90393066	13.93577576	0.85523021	0.00181546	0.19677186	0.00426323	-0.77428901	-0.00029798
0.248000	2.91874743	568.64416504	13.93555355	0.85533345	0.00181606	0.19669069	0.00581680	-1.05644929	-0.00040657
0.252000	2.91587472	569.16589355	13.93575382	0.85513008	0.00181494	0.19670022	0.00583248	-1.05929661	-0.00040766
0.256000	2.38222384	568.38122559	13.93472290	0.85541379	0.00181654	0.19661063	0.00535587	-0.97273463	-0.00037435
0.260000	2.91730499	568.90612793	13.93565464	0.85547435	0.00181681	0.19677159	0.00580885	-1.05500627	-0.00040601
0.264000	2.92020226	568.37994385	13.93545151	0.85494804	0.00181397	0.19660997	0.00584322	-1.06124711	-0.00040841
0.268000	2.92163229	568.12017822	13.93535137	0.85529274	0.00181584	0.19668140	0.00581957	-1.05695152	-0.00040676
0.272000	2.92091846	568.38262939	13.39748955	0.85543555	0.00181661	0.19673987	0.00490423	-0.89070714	-0.00034278
0.276000	2.92019010	568.38214111	13.93545246	0.85519242	0.00181532	0.19660971	0.00582475	-1.05789363	-0.00040712
0.280000	2.91946149	568.38171387	14.47353840	0.85519063	0.00181530	0.19663222	0.00516879	-0.93875766	-0.00036127
0.284000	2.91946769	568.64611816	13.39759064	0.85533297	0.00181613	0.19651896	0.00490431	-0.89072186	-0.00034279
0.288000	2.91730642	568.90588379	13.93565464	0.85523152	0.00181553	0.19662027	0.00582216	-1.05742204	-0.00040694
0.292000	2.91800809	568.64569092	14.47363949	0.85533297	0.00181611	0.19656153	0.00515527	-0.93630171	-0.00036033
0.296000	2.91657639	568.90570068	14.47373962	0.85523146	0.00181552	0.19664155	0.00516590	-0.93823266	-0.00036107
0.300000	2.91730642	568.90588379	13.93565464	0.85523152	0.00181553	0.19662027	0.00582216	-1.05742204	-0.00040694
0.304000	2.91657639	568.90570068	14.47373962	0.85523146	0.00181552	0.19664155	0.00516590	-0.93823266	-0.00036107
0.308000	2.91657639	568.90570068	14.47373962	0.85523146	0.00181552	0.19664155	0.00516590	-0.93823266	-0.00036107
0.312000	2.91369915	569.69378662	13.39799404	0.85541248	0.00181656	0.19653900	0.00489921	-0.88979608	-0.00034243
